<svg fill="none" height="39" viewBox="0 0 38 39" width="38" xmlns="http://www.w3.org/2000/svg" xmlns:xlink="http://www.w3.org/1999/xlink"><filter id="a" color-interpolation-filters="sRGB" filterUnits="userSpaceOnUse" height="38.0376" width="37.2754" x=".669922" y=".655273"><feFlood flood-opacity="0" result="BackgroundImageFix"/><feColorMatrix in="SourceAlpha" result="hardAlpha" type="matrix" values="0 0 0 0 0 0 0 0 0 0 0 0 0 0 0 0 0 0 127 0"/><feOffset dy="2.21922"/><feComposite in2="hardAlpha" operator="out"/><feColorMatrix type="matrix" values="0 0 0 0 0 0 0 0 0 0 0 0 0 0 0 0 0 0 0.25 0"/><feBlend in2="BackgroundImageFix" mode="normal" result="effect1_dropShadow_2844_16373"/><feBlend in="SourceGraphic" in2="effect1_dropShadow_2844_16373" mode="normal" result="shape"/></filter><filter id="b" color-interpolation-filters="sRGB" filterUnits="userSpaceOnUse" height="36.7414" width="37.2754" x=".669922" y=".655273"><feFlood flood-opacity="0" result="BackgroundImageFix"/><feColorMatrix in="SourceAlpha" result="hardAlpha" type="matrix" values="0 0 0 0 0 0 0 0 0 0 0 0 0 0 0 0 0 0 127 0"/><feOffset dy=".923077"/><feComposite in2="hardAlpha" operator="out"/><feColorMatrix type="matrix" values="0 0 0 0 0 0 0 0 0 0 0 0 0 0 0 0 0 0 1 0"/><feBlend in2="BackgroundImageFix" mode="normal" result="effect1_dropShadow_2844_16373"/><feBlend in="SourceGraphic" in2="effect1_dropShadow_2844_16373" mode="normal" result="shape"/></filter><g filter="url(#a)"><g filter="url(#b)"><path d="m11.6167 2.30005-9.1917 18.95785c-.92458 1.907-.05774 4.1992 1.89734 5.0171l19.01566 7.9555.9362.4681c1.596.798 3.5344.3404 4.6051-1.0871l7.5885-10.1181c.1441-.1921.1169-.4624-.0626-.6219l-1.7595-1.564-3.2307-1.3846 4.8502-7.4958c.1287-.199.0858-.4631-.0992-.6111l-1.9818-1.5855-21.9916-8.16179c-.2229-.08273-.4722.01741-.5759.23134z" fill="#8ee0f6"/><path d="m32.4421 19.6098 4.4043-6.8066c.3218-.4974.2147-1.1577-.2479-1.5278l-1.9818-1.58546-.0871-.06965-.1045-.0388-21.9916-8.16183c-.5573-.20681-1.1804.04353-1.4398.57836l-9.19165 18.95788c-1.097942 2.2645-.06857 4.9865 2.25309 5.9578l18.99416 7.9465.9153.4576c1.8953.9477 4.1971.4043 5.4685-1.2909l7.5886-10.1182c.3601-.48.292-1.156-.1565-1.5547l-1.7595-1.564-.084-.0746-.1033-.0443z" stroke="#000" stroke-width="1.38462"/></g><path d="m25.1047 31.0706 6.3106-11.1487 3.2307 1.3846-7.4445 11.0605c-.3577.5313-1.0625.7005-1.6224.3895-.5989-.3327-.8119-1.0897-.4744-1.6859z" fill="#1450af"/><path d="m11.7997 1.92285-9.69228 19.84615 20.53848 8.7692 11.5384-20.3077z" fill="#fff"/><g fill="#8ee0f6"><path d="m12.0309 6.07617-4.61534 9.46153 8.76924 3.6923 5.5385-9.46152z"/><path d="m22.4156 12.5377-.6923 1.3846 7.3846 2.7693.6923-2.077z"/><path d="m20.5694 16.6916-1.1538 1.6153 6.2307 3 1.1539-1.8461z"/><path d="m6.95403 18.0762-.69231 1.6154 16.38458 6.4615 1.3846-2.0769z"/></g><path d="m10.8762 12.9992-.92308 1.6154 2.30768.6923 1.1539 1.3846 1.8461-1.8462h1.8462v-2.3077l1.1538-2.0769-2.0769-.2308-1.3846-1.84611-1.6154 1.84611-2.3077.2308z" fill="#fff"/></g></svg>