<svg viewBox="0 0 887.04 360.24" xmlns="http://www.w3.org/2000/svg" xmlns:xlink="http://www.w3.org/1999/xlink"><clipPath id="a"><path d="m865.29 7.22c4.19 0 8.05 1.7 10.88 4.79s4.18 7.09 3.82 11.26l-27.16 300.49c-.68 7.67-7 13.46-14.7 13.46h-814.35c-4.19 0-8.05-1.7-10.88-4.79s-4.19-7.08-3.82-11.25l26.83-300.49c.67-7.68 6.99-13.47 14.7-13.47z"/></clipPath><path d="m837.13 360.24h-812.35c-12.76 0-22.78-10.93-21.67-23.65l26.83-307.49c.98-11.24 10.39-19.86 21.67-19.86h812.68c12.77 0 22.79 10.95 21.67 23.67l-27.16 307.49c-.99 11.23-10.4 19.84-21.67 19.84z" fill="#040404" opacity=".46"/><path d="m865.29.22h-814.68c-11.28 0-20.69 8.62-21.67 19.86l-26.83 307.49c-1.11 12.71 8.91 23.65 21.67 23.65h814.35c11.27 0 20.68-8.61 21.67-19.84l27.16-307.49c1.12-12.72-8.9-23.67-21.67-23.67z" fill="#040404"/><path d="m865.29 7.22c4.19 0 8.05 1.7 10.88 4.79s4.18 7.09 3.82 11.26l-27.16 300.49c-.68 7.67-7 13.46-14.7 13.46h-814.35c-4.19 0-8.05-1.7-10.88-4.79s-4.19-7.08-3.82-11.25l26.83-300.49c.67-7.68 6.99-13.47 14.7-13.47z" fill="#343c52"/><g clip-path="url(#a)"><path d="m0 315.18h860.21v22.04h-860.21z" fill="#272c3c"/><path d="m26.83 7.22h860.21v18h-860.21z" fill="#6d6084"/><path d="m842.63 0 43.62 48.13v-48.13z" fill="#826f9d"/></g><path d="m717.44 125.17c-1.83 0-3.61.72-5.28 2.15-11.55 9.87-33.15 28.33-47.98 41.16-14.55 12.48-30.37 26.84-38.5 34.29-1.97 1.81-3.11 4.28-3.21 6.95-.09 2.68.87 8.35 2.72 10.29l78.32 83.26c1.36 1.44 3.19 2.22 5.15 2.22 2.41 0 4.64-1.21 5.95-3.23l21.2-33.47c2.73-4.21 2.61-12.73-.32-16.84l-29.51-40.77 32.61-37.52c5.12-5.88 3.31-14.09.87-18.28l-15.28-25.78c-2.25-3.86-5.2-4.44-6.75-4.44z"/><path d="m717.44 129.07c1.29 0 2.44.89 3.4 2.53l15.26 25.75c2.42 4.16 2.72 6.99-.44 10.63l-36.23 41.43 32.89 44.81c1.98 2.79 2.06 6.5.2 9.37l-21.18 33.44c-.62.96-1.64 1.45-2.68 1.45-.84 0-1.68-.33-2.31-1l-78.33-83.27c-2.31-2.44-2.18-6.29.29-8.55 7.63-6.99 23.73-21.62 38.42-34.22 15.46-13.37 38.26-32.86 47.96-41.15.97-.82 1.89-1.22 2.75-1.22" fill="#fff"/></svg>